<svg aria-hidden="true" style="position:absolute;width:0;height:0" xmlns="http://www.w3.org/2000/svg" overflow="hidden"><defs><symbol id="iconfeather-facebook" viewBox="0 0 32 32"><path d="M24 2.667h-4a6.67 6.67 0 00-6.667 6.667v4h-4v5.333h4v10.667h5.333V18.667h4l1.333-5.333h-5.333v-4A1.335 1.335 0 0120 8h4V2.667z"/></symbol><symbol id="iconfeather-linkedin" viewBox="0 0 32 32"><path d="M21.333 10.667a8.002 8.002 0 018 8V28H24v-9.333a2.668 2.668 0 00-5.334 0V28h-5.333v-9.333a8 8 0 018-8zM2.667 12H8v16H2.667V12zM5.333 8a2.667 2.667 0 100-5.334 2.667 2.667 0 000 5.334z"/></symbol><symbol id="iconfeather-twitter" viewBox="0 0 32 32"><path d="M30.667 4a14.542 14.542 0 01-4.187 2.04 5.975 5.975 0 00-6.637-1.661A5.977 5.977 0 0016 10.04v1.333a14.211 14.211 0 01-12-6.04s-5.333 12 6.667 17.333a15.526 15.526 0 01-9.333 2.667c12 6.667 26.667 0 26.667-15.333a5.966 5.966 0 00-.107-1.107A10.288 10.288 0 0030.667 4z"/></symbol><symbol id="iconion-logo-apple-appstore" viewBox="0 0 32 32"><path fill="var(--color1, #fff)" d="M16 2C8.266 2 2 8.266 2 16s6.266 14 14 14 14-6.266 14-14S23.734 2 16 2zm-5.312 20.118a.964.964 0 01-.842.478.925.925 0 01-.491-.135.972.972 0 01-.45-.59.964.964 0 01.101-.736l.956-1.589a.54.54 0 01.471-.269h.141c.693 0 1.178.417 1.319.821l-1.205 2.019zm8.09-3.125L8.361 19a.978.978 0 01-.701-.296.968.968 0 01-.268-.713c.02-.525.478-.922 1-.922h3.015l3.574-6.084-1.158-1.972c-.261-.449-.145-1.042.302-1.324a.974.974 0 011.367.323l.619 1.057h.007l.619-1.057a.983.983 0 01.613-.451.975.975 0 01.75.128c.444.282.559.875.296 1.326l-4.726 8.056v.007h3.601c.451 0 1.017.242 1.246.633l.02.041c.202.343.316.579.316.922a.86.86 0 01-.073.323l-.002-.002zm4.859.007h-1.694v.007l1.239 2.107a.99.99 0 01-.323 1.346.968.968 0 01-.988.015.982.982 0 01-.358-.349l-2.968-5.054-1.468-2.509a2.391 2.391 0 01-.041-2.375c.29-.512.512-.646.512-.646l3.264 5.521h2.807c.525 0 .976.404 1 .922A.977.977 0 0123.638 19h-.002z"/></symbol><symbol id="iconion-logo-google-playstore" viewBox="0 0 32 32"><path fill="var(--color1, #fff)" d="M3 3.718V28.28a.27.27 0 00.461.192L16.25 15.999 3.461 3.525a.273.273 0 00-.294-.057c-.049.021-.091.055-.121.099S3 3.663 3 3.717zM21.613 10.875L5.567 2.034c-.276-.15-.539.224-.313.441l12.571 12.02 3.788-3.621zM5.255 29.524c-.228.218.035.591.313.441l.01-.006 16.035-8.835-3.788-3.622L5.256 29.523zM28.086 14.437l-4.478-2.466L19.397 16l4.211 4.027 4.478-2.464c1.218-.673 1.218-2.452 0-3.125z"/></symbol><symbol id="iconlogo" viewBox="0 0 32 32"><path fill="var(--color1, #fff)" d="M23.84 14.4c0-.48.16-.96.16-1.6 0-3.52-2.88-6.4-6.4-6.4-2.56 0-4.64 1.44-5.76 3.52-.32-.16-.96-.32-1.44-.32-2.24 0-4 1.76-4 4 0 .32 0 .64.16.8-2.88.48-4.96 2.72-4.96 5.6 0 3.04 2.56 5.6 5.6 5.6h16c3.04 0 5.6-2.56 5.6-5.6 0-2.88-2.08-5.28-4.96-5.6z"/></symbol><symbol id="iconsimple-icons_windows" viewBox="0 0 32 32"><path fill="var(--color1, #fff)" d="M0 4.599L13 2.8v12.601H0V4.598zm14.599-2L32 0v15.2H14.599V2.599zM0 16.8h13v12.601L0 27.598V16.799zm14.599 0H32V32l-17.2-2.401z"/></symbol><symbol id="icont1" viewBox="0 0 32 32"><path fill="var(--color2, #ed4c5c)" d="M19.5 22.072h-2.316V14.5a.25.25 0 00-.25-.25h-1.875a.251.251 0 00-.25.25v7.572H12.5a.25.25 0 00-.197.403l3.5 4.428a.25.25 0 00.306.071.24.24 0 00.087-.071l3.5-4.428a.25.25 0 00-.197-.403z"/><path fill="var(--color2, #ed4c5c)" d="M25.356 11.459C23.925 7.684 20.278 5 16.006 5s-7.919 2.681-9.35 6.456A6.253 6.253 0 002 17.5a6.248 6.248 0 006.247 6.25H9.5a.25.25 0 00.25-.25v-1.875a.25.25 0 00-.25-.25H8.247a3.876 3.876 0 01-3.053-6.262 3.916 3.916 0 012.066-1.366l1.184-.309.434-1.144a7.686 7.686 0 012.753-3.54c1.284-.903 2.797-1.381 4.375-1.381s3.091.478 4.375 1.381a7.72 7.72 0 011.638 1.559 7.572 7.572 0 011.116 1.981l.431 1.141 1.181.313a3.892 3.892 0 012.878 3.753 3.857 3.857 0 01-1.134 2.741 3.832 3.832 0 01-2.737 1.134h-1.253a.25.25 0 00-.25.25v1.875c0 .138.112.25.25.25h1.253a6.252 6.252 0 001.603-12.291z"/></symbol><symbol id="icont2" viewBox="0 0 32 32"><path fill="var(--color2, #ed4c5c)" d="M16.421 1.508l9.471 3.228a.657.657 0 01.415.591v13.445c0 .248-.159.571-.351.722l-9.607 7.486c-.095.075-.223.114-.351.114s-.254-.039-.351-.114L6.04 19.494a1.049 1.049 0 01-.351-.722V5.327a.67.67 0 01.421-.591l9.471-3.228c.114-.039.268-.059.421-.059s.307.02.421.059zM16 24.708l8.306-6.472V6.318L16 3.486 7.694 6.318v11.918L16 24.708z"/><path fill="var(--color2, #ed4c5c)" d="M12.959 14.739a4.016 4.016 0 111.262 1.262l-2.16 2.16a.225.225 0 01-.315 0l-.948-.948c-.041-.042-.065-.098-.065-.157s.023-.116.065-.157l2.16-2.16zm4.978-3.716a2.231 2.231 0 10-3.154 3.155 2.231 2.231 0 003.154-3.155z"/></symbol><symbol id="icont3" viewBox="0 0 32 32"><path fill="var(--color2, #ed4c5c)" d="M28.163 11.235h-.755V7.596a.538.538 0 00-.007-.069.6.6 0 00-.147-.398L21.187.207a.602.602 0 00-.123-.102l-.04-.024a.61.61 0 00-.121-.051L20.87.019a.564.564 0 00-.142-.018H5.825c-.681 0-1.233.553-1.233 1.232v10.003h-.755a1.76 1.76 0 00-1.762 1.76v9.155c0 .971.79 1.76 1.762 1.76h.755v6.266c0 .679.553 1.232 1.233 1.232h20.35c.68 0 1.233-.553 1.233-1.232v-6.266h.755c.973 0 1.762-.788 1.762-1.76v-9.155a1.76 1.76 0 00-1.762-1.759zM5.825 1.232h14.286v6.302c0 .341.276.615.617.615h5.448v3.085H5.825V1.231zm9.227 16.876c-1.497-.534-2.486-1.362-2.486-2.669 0-1.534 1.297-2.695 3.408-2.695 1.029 0 1.764.2 2.298.453l-.455 1.628a4.24 4.24 0 00-1.871-.426c-.882 0-1.31.413-1.31.867 0 .574.493.827 1.67 1.267 1.591.587 2.325 1.414 2.325 2.683 0 1.509-1.149 2.789-3.621 2.789-1.029 0-2.044-.28-2.552-.561l.414-1.668a5.14 5.14 0 002.257.561c.936 0 1.43-.388 1.43-.975 0-.561-.427-.88-1.51-1.254zm-10.613-.614c0-3.056 2.191-4.751 4.916-4.751 1.056 0 1.857.213 2.218.387l-.428 1.614a4.288 4.288 0 00-1.71-.334c-1.603 0-2.859.973-2.859 2.975 0 1.788 1.068 2.923 2.872 2.923.628 0 1.297-.119 1.71-.294l.295 1.601c-.361.172-1.217.387-2.298.387-3.114.001-4.717-1.947-4.717-4.509zm21.736 12.35H5.825V23.91h20.35v5.934zm-1.647-7.973h-2.379l-2.885-8.995h2.231l1.095 3.804c.306 1.08.587 2.095.801 3.216h.04c.228-1.069.5-2.129.814-3.175l1.15-3.843h2.164l-3.031 8.993z"/></symbol><symbol id="icont4" viewBox="0 0 32 32"><path fill="var(--color2, #ed4c5c)" d="M10.845 16.306c0-.665-.462-1.062-1.276-1.062-.332 0-.557.032-.675.064v2.135c.14.032.311.043.547.043.868 0 1.404-.44 1.404-1.18zM15.887 15.265c-.365 0-.601.032-.741.065v4.729c.14.032.365.032.568.032 1.48.01 2.445-.805 2.445-2.531.011-1.502-.868-2.296-2.273-2.296z"/><path fill="var(--color2, #ed4c5c)" d="M25.548 12.487h-.593V9.626a.329.329 0 00-.005-.054.475.475 0 00-.115-.314l-4.763-5.439a.483.483 0 00-.223-.139l-.026-.009a.463.463 0 00-.111-.014H8.014a.97.97 0 00-.968.968v7.862h-.593c-.764 0-1.383.619-1.383 1.383v7.195c0 .763.62 1.384 1.383 1.384h.593v4.926a.97.97 0 00.968.968h15.974a.97.97 0 00.968-.968v-4.926h.593c.764 0 1.383-.62 1.383-1.384V13.87c0-.764-.62-1.383-1.383-1.383zM8.013 4.625h11.214v4.953c0 .268.217.484.484.484h4.276v2.425H8.012V4.625zm11.885 12.882c0 1.384-.504 2.338-1.202 2.928-.761.632-1.919.933-3.335.933a14.31 14.31 0 01-1.856-.107v-7.1c.601-.096 1.383-.15 2.21-.15 1.372 0 2.262.247 2.959.772.751.557 1.223 1.447 1.223 2.723zM7.273 21.293V14.16c.504-.086 1.212-.15 2.209-.15 1.008 0 1.727.193 2.209.579.461.365.771.965.771 1.673s-.235 1.308-.665 1.716c-.558.526-1.383.762-2.349.762-.214 0-.408-.01-.557-.032v2.585H7.272zm16.714 5.82H8.013v-4.664h15.974v4.664zm1.403-11.708h-2.778v1.652h2.596v1.33h-2.596v2.906h-1.64v-7.229h4.418v1.341z"/></symbol></defs></svg>