<svg width="74" height="74" fill="none" xmlns="http://www.w3.org/2000/svg"><g filter="url(#filter0_d)" fill-rule="evenodd" clip-rule="evenodd" fill="#ED4C5C"><path d="M37.973 3.487l21.901 7.464c.535.186.974.799.96 1.366v31.092c0 .574-.367 1.322-.811 1.67L37.806 62.39a1.32 1.32 0 01-.812.264c-.297 0-.587-.09-.813-.264L13.965 45.078c-.445-.354-.813-1.102-.813-1.669V12.317c0-.567.439-1.186.974-1.366l21.9-7.464c.265-.09.62-.135.974-.135.355 0 .709.045.973.135zM37 57.137l19.207-14.965v-27.56L37 8.063l-19.207 6.548v27.56L37 57.139z"/><path d="M29.968 34.083l-4.995 4.995a.518.518 0 000 .728l2.192 2.192c.2.2.528.2.728 0l4.995-4.995a9.287 9.287 0 0011.511-1.296 9.286 9.286 0 000-13.136 9.286 9.286 0 00-13.135 0 9.288 9.288 0 00-1.296 11.512zM41.48 25.49a5.16 5.16 0 00-7.296 7.296 5.154 5.154 0 007.296 0 5.154 5.154 0 000-7.296z"/></g><defs><filter id="filter0_d" x="0" y="0" width="74" height="74" filterUnits="userSpaceOnUse" color-interpolation-filters="sRGB"><feFlood flood-opacity="0" result="BackgroundImageFix"/><feColorMatrix in="SourceAlpha" values="0 0 0 0 0 0 0 0 0 0 0 0 0 0 0 0 0 0 127 0"/><feOffset dy="4"/><feGaussianBlur stdDeviation="2"/><feColorMatrix values="0 0 0 0 0 0 0 0 0 0 0 0 0 0 0 0 0 0 0.25 0"/><feBlend in2="BackgroundImageFix" result="effect1_dropShadow"/><feBlend in="SourceGraphic" in2="effect1_dropShadow" result="shape"/></filter></defs></svg>